#!OML:ASF H:\LiuWeirdWalks\Patient Classification 1\Patient 1\Session 1\male.ASF
:FULLY-SPECIFIED
:DEGREES
1137
root 1.17942 17.9187 2.0632 2.75215 7.68953 -8.06848
lowerback 2.17364 3.7328 5.65243
upperback -2.04933 5.28676 2.94439
thorax -3.10765 2.54379 -0.358283
lowerneck -15.4494 -0.203405 4.32201
upperneck 22.8515 -0.0668666 -5.20073
head 9.78175 -0.234816 -2.55401
rclavicle 4.21579e-014 1.25234e-014
rhumerus -38.5087 -1.33705 -82.9346
rradius 38.5042
rwrist -9.57638
rhand -16.2062 -3.68409
rfingers 7.12502
rthumb 10.0012 -33.4265
lclavicle 4.21579e-014 1.25234e-014
lhumerus -45.9587 1.26224 83.4692
lradius 35.5431
lwrist 11.8746
lhand -12.6506 -1.23021
lfingers 7.12502
lthumb 13.43 28.3169
rfemur 19.4687 -4.46785 32.4197
rtibia 1.59028e-014
rfoot -4.2892 -13.8725
rtoes -14.8845
lfemur -30.1711 -3.36191 -11.3258
ltibia 28.9266
lfoot -4.49505 2.18008
ltoes -16.8868
1138
root 1.19839 17.9234 2.12507 2.81547 7.72192 -7.97844
lowerback 2.17462 3.71573 5.58646
upperback -2.06783 5.26192 2.9153
thorax -3.13131 2.53177 -0.351983
lowerneck -15.4243 -0.204729 4.31161
upperneck 22.8805 -0.0667056 -5.18971
head 9.7873 -0.233934 -2.5487
rclavicle -5.60852e-014 -2.26615e-014
rhumerus -38.5657 -1.40756 -82.8645
rradius 38.4988
rwrist -9.515
rhand -16.2044 -3.7235
rfingers 7.12502
rthumb 10.0029 -33.4658
lclavicle -5.60852e-014 -2.26615e-014
lhumerus -45.9478 1.25313 83.4671
lradius 35.5914
lwrist 11.909
lhand -12.6881 -1.30609
lfingers 7.12502
lthumb 13.3938 28.2434
rfemur 19.6149 -4.51111 32.2365
rtibia -1.59028e-014
rfoot -4.10865 -13.736
rtoes -15.2068
lfemur -30.1336 -3.26625 -11.5397
ltibia 29.1384
lfoot -4.46429 1.87831
ltoes -16.5093
1139
root 1.21745 17.9289 2.18674 2.88284 7.76195 -7.8829
lowerback 2.16441 3.69615 5.51804
upperback -2.08515 5.23261 2.88512
thorax -3.1477 2.51779 -0.344398
lowerneck -15.3548 -0.19759 4.34154
upperneck 22.8365 -0.056734 -5.21566
head 9.75894 -0.229098 -2.55996
rclavicle -5.92316e-015 -3.45885e-014
rhumerus -38.6203 -1.49335 -82.7885
rradius 38.4908
rwrist -9.44543
rhand -16.2035 -3.76012
rfingers 7.12502
rthumb 10.0038 -33.5024
lclavicle -5.92316e-015 -3.45885e-014
lhumerus -45.9297 1.25322 83.4616
lradius 35.6291
lwrist 11.9182
lhand -12.7214 -1.37974
lfingers 7.12502
lthumb 13.3617 28.1718
rfemur 19.7564 -4.56077 32.0456
rtibia 3.18055e-015
rfoot -3.91698 -13.5868
rtoes -15.5398
lfemur -30.0997 -3.20111 -11.7632
ltibia 29.3463
lfoot -4.40379 1.58633
ltoes -16.1321
1140
root 1.23672 17.935 2.24817 2.95189 7.80343 -7.79024
lowerback 2.14327 3.67649 5.4576
upperback -2.10368 5.20267 2.85555
thorax -3.15856 2.50347 -0.339775
lowerneck -15.2612 -0.201709 4.34019
upperneck 22.7718 -0.0586239 -5.22354
head 9.7181 -0.230238 -2.56033
rclavicle 5.01559e-014 2.20651e-014
rhumerus -38.6876 -1.59287 -82.707
rradius 38.4925
rwrist -9.35295
rhand -16.1933 -3.79352
rfingers 7.12502
rthumb 10.0136 -33.5353
lclavicle 5.01559e-014 2.20651e-014
lhumerus -45.9208 1.24364 83.4599
lradius 35.6685
lwrist 11.9185
lhand -12.7575 -1.42397
lfingers 7.12502
lthumb 13.327 28.1299
rfemur 19.8937 -4.6108 31.8551
rtibia 0
rfoot -3.71412 -13.4259
rtoes -15.8803
lfemur -30.0689 -3.16448 -11.988
ltibia 29.5547
lfoot -4.31526 1.33053
ltoes -15.7345
1141
root 1.25628 17.9417 2.30921 3.01848 7.83694 -7.71529
lowerback 2.11974 3.65718 5.42294
upperback -2.11957 5.17384 2.82838
thorax -3.16333 2.48929 -0.346515
lowerneck -15.1766 -0.197351 4.35984
upperneck 22.7022 -0.0506268 -5.24757
head 9.67783 -0.226936 -2.56871
rclavicle -1.84466e-014 1.31198e-014
rhumerus -38.7416 -1.68407 -82.6313
rradius 38.4833
rwrist -9.25166
rhand -16.1674 -3.83765
rfingers 7.12502
rthumb 10.0387 -33.5782
lclavicle -1.84466e-014 1.31198e-014
lhumerus -45.8998 1.24289 83.4522
lradius 35.7029
lwrist 11.9257
lhand -12.78 -1.37534
lfingers 7.12502
lthumb 13.3053 28.1799
rfemur 20.0298 -4.65208 31.6805
rtibia 5.725e-014
rfoot -3.50144 -13.2551
rtoes -16.2256
lfemur -30.0008 -3.15958 -12.1932
ltibia 29.6859
lfoot -4.14916 1.12879
ltoes -15.2446
1142
root 1.27626 17.9484 2.37027 3.077 7.85981 -7.66311
lowerback 2.08829 3.64066 5.41787
upperback -2.12543 5.14872 2.80731
thorax -3.15116 2.47685 -0.362363
lowerneck -15.1386 -0.185747 4.3951
upperneck 22.6754 -0.0346737 -5.28065
head 9.66188 -0.219937 -2.58333
rclavicle -1.86112e-014 -1.70955e-014
rhumerus -38.7779 -1.76314 -82.5634
rradius 38.4638
rwrist -9.18895
rhand -16.1664 -3.8599
rfingers 7.12502
rthumb 10.0396 -33.6004
lclavicle -1.86112e-014 -1.70955e-014
lhumerus -45.8576 1.25514 83.4383
lradius 35.7152
lwrist 11.9074
lhand -12.7829 -1.33013
lfingers 7.12502
lthumb 13.3025 28.2253
rfemur 20.1703 -4.68261 31.5262
rtibia -5.725e-014
rfoot -3.28015 -13.0789
rtoes -16.5634
lfemur -29.9265 -3.18432 -12.3711
ltibia 29.8227
lfoot -3.95572 1.00288
ltoes -14.6184
